<svg xmlns="http://www.w3.org/2000/svg" data-name="Layer 1" viewBox="0 0 95 118.75" x="0px" y="0px"><defs><style>.cls-1{fill-rule:evenodd;}</style></defs><title>a</title><path class="cls-1" d="M33.557,23.821a2.811,2.811,0,0,1,0-3.977l7.657-7.659a2.814,2.814,0,0,1,3.977,0l7.658,7.659a2.812,2.812,0,1,1-3.976,3.977l-2.857-2.857V33.525a2.813,2.813,0,1,1-5.626,0V20.964l-2.855,2.857a2.812,2.812,0,0,1-3.978,0ZM19.663,79.377a2.812,2.812,0,0,1,2.813-2.813H42.381a2.812,2.812,0,1,1,0,5.624h-19.9a2.811,2.811,0,0,1-2.813-2.811Zm53.723-15.11h.048a2.813,2.813,0,0,1,0,5.626h-.048a2.813,2.813,0,0,1,0-5.626ZM31.443,41.66H19.611a4.87,4.87,0,1,1,0-9.74h3.828a21.474,21.474,0,0,0,8,9.74ZM43.2,8.125A15.726,15.726,0,1,0,58.929,23.85,15.742,15.742,0,0,0,43.2,8.125Zm23.6,23.8v9.74H54.964a21.47,21.47,0,0,0,8.005-9.74ZM75,47.286H19.611a10.448,10.448,0,0,1-4.872-1.2v35.92a4.876,4.876,0,0,0,4.872,4.87H75V77.622H71.479a10.542,10.542,0,0,1,0-21.084H75V47.286Zm5.261,14.878H71.479a4.917,4.917,0,0,0,0,9.833h8.782V62.164ZM9.115,36.789V82.005a10.507,10.507,0,0,0,10.5,10.5H75.755a4.876,4.876,0,0,0,4.871-4.871V77.622h2.448a2.811,2.811,0,0,0,2.811-2.813V59.351a2.812,2.812,0,0,0-2.811-2.813H80.626V46.531a4.876,4.876,0,0,0-4.871-4.871H72.428V31.167A4.876,4.876,0,0,0,67.559,26.3H64.412A21.35,21.35,0,1,0,21.853,23.85a21.493,21.493,0,0,0,.141,2.446H19.611A10.507,10.507,0,0,0,9.115,36.789Z"/></svg>