<svg xmlns="http://www.w3.org/2000/svg" data-name="Layer 1" viewBox="0 0 95 118.75" x="0px" y="0px"><defs><style>.cls-1{fill-rule:evenodd;}</style></defs><title>a</title><path class="cls-1" d="M33.557,27.857a2.812,2.812,0,0,1,3.977-3.977l2.857,2.857V14.175a2.813,2.813,0,0,1,5.626,0V26.737l2.855-2.857a2.812,2.812,0,1,1,3.977,3.977l-7.657,7.657a2.813,2.813,0,0,1-3.978,0l-7.657-7.657ZM19.664,79.377a2.812,2.812,0,0,1,2.811-2.813H42.382a2.812,2.812,0,0,1,0,5.624H22.475a2.81,2.81,0,0,1-2.811-2.811Zm53.724-15.11h.047a2.813,2.813,0,0,1,0,5.626h-.047a2.813,2.813,0,0,1,0-5.626ZM14.74,46.085v35.92a4.876,4.876,0,0,0,4.871,4.87H75V77.622H71.48a10.542,10.542,0,0,1,0-21.084H75V47.286H19.611a10.438,10.438,0,0,1-4.871-1.2ZM19.611,31.92h3.828a21.47,21.47,0,0,0,8,9.74H19.611a4.87,4.87,0,1,1,0-9.74ZM43.2,8.125A15.726,15.726,0,1,0,58.93,23.85,15.743,15.743,0,0,0,43.2,8.125Zm23.6,23.8v9.74H54.964a21.474,21.474,0,0,0,8-9.74ZM80.26,62.164H71.48a4.917,4.917,0,1,0,0,9.833h8.78V62.164ZM9.114,82.005a10.507,10.507,0,0,0,10.5,10.5H75.754a4.876,4.876,0,0,0,4.871-4.871V77.622h2.448a2.813,2.813,0,0,0,2.813-2.813V59.351a2.814,2.814,0,0,0-2.813-2.813H80.625V46.531a4.876,4.876,0,0,0-4.871-4.871H72.429V31.167A4.876,4.876,0,0,0,67.558,26.3H64.412A21.349,21.349,0,1,0,21.854,23.85a21.726,21.726,0,0,0,.14,2.446H19.611a10.507,10.507,0,0,0-10.5,10.493Z"/></svg>